# xmcd
#
# Track frame offsets: 
#        150
#        22797
#        43091
#        59250
#        84441
#        104020
#        127352
#        143356
#        166568
#        187943
#        207539
#        239227
#
# Disc length: 3707 seconds
#
# Revision: 0
# Processed by: cddbd v1.5.2PL0 Copyright (c) Steve Scherf et al.
# Submitted via: ExactAudioCopy v1.3
#
DISCID=a40e790c
DTITLE=Victor Wainwright and The Train - Victor Wainwright and The Train
DYEAR=2018
DGENRE=Blues
TTITLE0=Healing
TTITLE1=Wiltshire Grave
TTITLE2=Train
TTITLE3=Dull Your Shine
TTITLE4=Money
TTITLE5=Thank You Lucille
TTITLE6=Boogie Depression
TTITLE7=Everything I Need
TTITLE8=Righteous
TTITLE9=I'll Start Tomorrow
TTITLE10=Sunshine
TTITLE11=That's Love to Me
EXTD=
EXTT0=
EXTT1=
EXTT2=
EXTT3=
EXTT4=
EXTT5=
EXTT6=
EXTT7=
EXTT8=
EXTT9=
EXTT10=
EXTT11=
PLAYORDER=
